Patient4_TMGait_0pt4_01_left_45_EMG.mot
version=1
nRows=13
nColumns=33
inDegrees=no
endheader
time	1LAddLong	2LGlutMax	3LGlutMed	4LIliopsoas	5LSemiMemb	6LBicFemLong	7LRecFem	8LVastMed	9LVastLat	10LGasMed	11LTibAnt	12lTibPost	13LPeroneusLong	14LSol	15LExtDigLong	16LFlexDigLong	17RAddLong	18RGlutMax	19RGlutMed	20RIliopsoas	21RSemiMemb	22RBicFemLong	23RRecFem	24RVastMed	25RVastLat	26RGasMed	27RTibAnt	28RTibPost	29RPeroneusLong	30RSol	31RExtDigLong	32RFlexDigLong
56.88	0.013123	0.18494	0.006714	-0.021515	-0.003052	0.039063	0.1149	0.013428	0.037079	0.009613	-0.17181	0.049286	0.005951	0.02533	0.11002	-0.0383	0.054779	-0.25971	0.28442	-0.088806	-0.021362	-0.0177	-0.13443	-0.099335	0.011139	0.018616	-1.4896	0.030975	0.6015	-0.51971	-0.002899	-0.005188
56.881	0.019836	0.16235	0.026093	-0.009918	-0.002136	0.053406	0.1268	0.023041	0.042877	-0.005341	-0.11627	0.037384	0.070038	0.22446	0.74677	-0.028229	0.079498	-0.31876	0.76004	-0.066071	-0.064545	-0.12589	-0.076447	-0.045776	0.052948	0.046692	-0.49316	0.039063	1.3454	-0.46081	-0.003052	-0.001221
56.882	0.022888	0.12711	0.011444	-0.00946	-0.001221	0.033722	0.095215	0.011597	0.061188	-0.03952	0.042725	0.039978	0.053864	0.26566	0.0354	-0.0177	0.069885	-0.31464	0.60364	0.000305	-0.14633	-0.22903	0.000763	-0.036774	0.045471	0.027466	0.43213	-0.00061	0.44525	-0.31235	-0.00061	-0.00824
56.883	0.019531	0.089264	0.009155	0.013428	-0.001068	0.030518	0.10422	0.015106	0.054932	-0.065613	0.063324	0.041046	0.03006	0.2301	-0.1152	-0.00824	0.018463	-0.31815	-0.1503	0.078735	-0.55359	0.047302	0.039978	-0.06546	0.063477	-0.040283	0.73517	-0.059967	-0.29923	0.002289	-0.002594	-0.00885
56.884	0.013733	0.074005	-0.003357	0.020294	0.000305	0.039368	0.089417	0.009308	0.079041	-0.1442	-0.16693	0.038605	0.10407	0.27863	0.028229	0.010529	-0.024719	-0.31754	-0.35706	0.11246	-0.62088	0.007935	0.047302	-0.031738	0.06897	-0.083313	1.127	-0.051422	0.18509	0.24643	-0.001221	-0.020447
56.885	0.006409	0.024719	0.011749	-0.000153	0.001526	0.024109	0.11139	0.013428	0.076752	-0.092468	0.081787	0.038757	0.029602	0.21759	-0.061646	0.14755	-0.09552	-0.37369	-0.31403	0.09079	0.13412	-0.040588	0.15656	0.13351	0.064392	-0.085602	0.77164	-0.033264	-0.3685	-0.20432	-0.001221	-0.013733
56.886	0.007629	0.02533	0.014496	-0.001984	-0.004425	0.024719	0.082703	0.014038	0.079193	0.007019	0.16998	0.028839	-0.083771	0.032806	-0.13534	-0.060577	-0.073395	-0.36362	-0.20004	0.079956	0.33737	0.019379	0.25604	0.28488	0.029602	-0.10193	0.30273	-0.02182	-0.5545	-0.49042	-0.001221	-0.015869
56.887	-0.011749	0.00473	0.005951	0.024109	-0.000153	0.005646	0.089874	0.003967	0.09201	0.027161	0.13367	0.030975	-0.005798	0.02243	-0.26871	-0.82108	0.00885	-0.35095	0.00412	0.041046	0.36423	0.026855	0.4715	0.23132	0.012665	0.065308	-0.1889	0.019531	-0.11673	-0.2034	-0.004883	-0.01236
56.888	0.002441	-0.010376	-0.008545	0.023956	-0.001373	0.016479	0.064697	0.004272	0.087128	0.003967	0.11124	0.023193	0.015106	0.1236	-0.1712	0.32577	0.024261	-0.35156	-0.15366	-0.018311	0.2887	0.005188	0.49347	0.020752	-0.053253	0.10666	0.046539	0.005341	-0.18051	0.26032	-0.005341	-0.0177
56.889	0.002747	-0.039673	-0.007172	0.014038	0.008087	0.028076	0.085907	0.02243	0.078888	-0.013428	0.044708	0.014648	0.027924	0.095978	-0.1709	0.21622	0.027008	-0.25955	-0.11368	-0.005493	0.095673	0.078735	0.26977	-0.11124	0.066223	0.03952	0.035248	0.026245	0.45059	0.60379	-0.002747	-0.012207
56.89	0.001984	-0.023651	-0.008698	0.023041	0.004272	0.026093	0.083008	0.010681	0.079498	-0.006561	0.031128	0.019836	0.054779	0.000763	-0.32333	0.071716	0.025024	-0.18723	-0.027771	0.045471	0.40726	-0.003967	0.045776	-0.19348	0.4042	-0.073853	-0.054779	-0.090027	0.57587	0.08316	-0.006256	-0.011749
56.891	-0.006104	-0.075531	0.006409	0.019226	-0.004272	0.037994	0.095978	0.013733	0.075226	0.028381	-0.042572	0.012665	0.020142	-0.093231	-0.12741	0.028839	0.037994	-0.26276	-0.00351	0.00473	0.4599	-0.088501	-0.019226	-0.31891	0.4042	-0.24231	-0.66101	-0.40466	0.23712	-0.13855	-0.000458	-0.00061
56.892	0.002289	-0.073242	0.012054	0.050964	-0.005646	0.033264	0.084991	0.017853	0.078583	0.032043	-0.037537	0.010681	-0.037689	-0.074615	0.045776	-0.008087	0.01297	-0.25711	-0.061188	-0.050201	0.09491	-0.016632	0.022278	-0.40405	0.43304	-0.2002	-0.64255	0.10696	-0.233	0.16678	-0.002899	0.000458
